<svg width="178" height="88" viewBox="0 0 178 88" fill="none" xmlns="http://www.w3.org/2000/svg">
<path d="M31.464 50.256H44.2V66H1.896V56.784L21.608 26.704H14.952V31.952H2.216V16.208H43.176V25.424L23.528 55.504H31.464V50.256ZM46.405 66V55.504H49.605V26.704H46.405V16.208H70.725V26.704H67.525V55.504H70.725V66H46.405ZM110.144 16.208H131.136V26.704H127.936V66H109.952L91.2 37.136V55.504H94.272V66H73.28V55.504H76.48V26.704H73.28V16.208H96.384L113.216 41.872V26.704H110.144V16.208ZM133.593 66V55.504H136.793V26.704H133.593V16.208H176.793V35.536H162.457V26.704H154.713V36.816H160.345V44.112H154.713V55.504H162.457V45.392H176.793V66H133.593Z" fill="black"/>
<line x1="0.977401" y1="75.0001" x2="177.977" y2="74.0001" stroke="black" stroke-width="8"/>
<line x1="0.977401" y1="8.00006" x2="177.977" y2="7.00006" stroke="black" stroke-width="8"/>
</svg>
