<svg width="537" height="309" viewBox="0 0 537 309" fill="none" xmlns="http://www.w3.org/2000/svg">
<rect width="537" height="309" fill="#DDDDDD"/>
<path d="M210.464 161.256H223.2V177H180.896V167.784L200.608 137.704H193.952V142.952H181.216V127.208H222.176V136.424L202.528 166.504H210.464V161.256ZM225.405 177V166.504H228.605V137.704H225.405V127.208H249.725V137.704H246.525V166.504H249.725V177H225.405ZM289.144 127.208H310.136V137.704H306.936V177H288.952L270.2 148.136V166.504H273.272V177H252.28V166.504H255.48V137.704H252.28V127.208H275.384L292.216 152.872V137.704H289.144V127.208ZM312.593 177V166.504H315.793V137.704H312.593V127.208H355.793V146.536H341.457V137.704H333.713V147.816H339.345V155.112H333.713V166.504H341.457V156.392H355.793V177H312.593Z" fill="#636363"/>
<line x1="179.977" y1="186" x2="356.977" y2="185" stroke="#636363" stroke-width="8"/>
<line x1="179.977" y1="119" x2="356.977" y2="118" stroke="#636363" stroke-width="8"/>
</svg>
