<svg height="16" viewBox="0 0 1152 1024" width="18" xmlns="http://www.w3.org/2000/svg"><path d="m804.6 689.8 64-64c10-10 27.4-3 27.4 11.4v290.8c0 53-43 96-96 96h-704c-53 0-96-43-96-96v-704c0-53 43-96 96-96h547c14.2 0 21.4 17.2 11.4 27.4l-64 64c-3 3-7 4.6-11.4 4.6h-483v704h704v-227c0-4.2 1.6-8.2 4.6-11.2zm313.2-403.6-525.2 525.2-180.8 20c-52.4 5.8-97-38.4-91.2-91.2l20-180.8 525.2-525.2c45.8-45.8 119.8-45.8 165.4 0l86.4 86.4c45.8 45.8 45.8 120 .2 165.6zm-197.6 61.8-116.2-116.2-371.6 371.8-14.6 130.6 130.6-14.6zm129.6-159.4-86.4-86.4c-8.2-8.2-21.6-8.2-29.6 0l-61.8 61.8 116.2 116.2 61.8-61.8c8-8.4 8-21.6-.2-29.8z"/></svg>